<mxfile host="app.diagrams.net" modified="2024-05-17T09:21:21.196Z" agent="Mozilla/5.0 (Windows NT 10.0; Win64; x64) AppleWebKit/537.36 (KHTML, like Gecko) Chrome/124.0.0.0 Safari/537.36" etag="8F3Ns1Yw0LHreuLufs1B" version="24.0.7" type="device">
  <diagram name="Page-1" id="k2w-0MG6iggw6YIJIO3Z">
    <mxGraphModel dx="420" dy="238" grid="1" gridSize="10" guides="1" tooltips="1" connect="1" arrows="1" fold="1" page="1" pageScale="1" pageWidth="900" pageHeight="1600" math="0" shadow="0">
      <root>
        <mxCell id="0" />
        <mxCell id="1" parent="0" />
        <mxCell id="h6Hvprm5l93SC_2R2wYD-1" value="" style="whiteSpace=wrap;html=1;rotation=-90;" vertex="1" parent="1">
          <mxGeometry x="340" y="250" width="190" height="90" as="geometry" />
        </mxCell>
        <mxCell id="h6Hvprm5l93SC_2R2wYD-2" value="" style="rounded=0;whiteSpace=wrap;html=1;fillColor=#000000;" vertex="1" parent="1">
          <mxGeometry x="390" y="200" width="90" height="10" as="geometry" />
        </mxCell>
        <mxCell id="h6Hvprm5l93SC_2R2wYD-3" value="" style="rounded=0;whiteSpace=wrap;html=1;fillColor=#000000;" vertex="1" parent="1">
          <mxGeometry x="390" y="380" width="90" height="10" as="geometry" />
        </mxCell>
        <mxCell id="h6Hvprm5l93SC_2R2wYD-4" value="" style="rounded=0;whiteSpace=wrap;html=1;" vertex="1" parent="1">
          <mxGeometry x="390" y="210" width="90" height="20" as="geometry" />
        </mxCell>
        <mxCell id="h6Hvprm5l93SC_2R2wYD-5" value="&lt;p style=&quot;line-height: 50%;&quot;&gt;&lt;font style=&quot;font-size: 6px;&quot;&gt;Press &#39;Start Scanning&#39; to connect to a bluetooth device.&lt;/font&gt;&lt;/p&gt;" style="text;html=1;align=left;verticalAlign=middle;whiteSpace=wrap;rounded=0;" vertex="1" parent="1">
          <mxGeometry x="390" y="210" width="90" height="20" as="geometry" />
        </mxCell>
        <mxCell id="h6Hvprm5l93SC_2R2wYD-6" value="&lt;p style=&quot;line-height: 60%;&quot;&gt;&lt;font style=&quot;font-size: 5px;&quot;&gt;Start Scanning&lt;/font&gt;&lt;/p&gt;" style="rounded=0;whiteSpace=wrap;html=1;align=center;verticalAlign=middle;fillColor=#f5f5f5;fontColor=#333333;strokeColor=#666666;" vertex="1" parent="1">
          <mxGeometry x="400" y="240" width="70" height="10" as="geometry" />
        </mxCell>
        <mxCell id="h6Hvprm5l93SC_2R2wYD-7" value="&lt;font style=&quot;font-size: 8px;&quot; color=&quot;#fafafa&quot;&gt;ble_device1:20edq312&lt;br&gt;ble_device2:321FD:32&lt;br&gt;DIHM_ESP32:234:DQ2&lt;/font&gt;" style="rounded=0;whiteSpace=wrap;html=1;fillColor=#000000;align=left;" vertex="1" parent="1">
          <mxGeometry x="390" y="260" width="90" height="50" as="geometry" />
        </mxCell>
        <mxCell id="h6Hvprm5l93SC_2R2wYD-8" value="&lt;font style=&quot;font-size: 6px;&quot;&gt;Bluetooth status: Not connected&lt;/font&gt;" style="text;html=1;align=left;verticalAlign=middle;whiteSpace=wrap;rounded=0;fontSize=7;" vertex="1" parent="1">
          <mxGeometry x="390" y="310" width="90" height="10" as="geometry" />
        </mxCell>
        <mxCell id="h6Hvprm5l93SC_2R2wYD-9" value="&lt;font style=&quot;font-size: 6px;&quot;&gt;Blockchain:&lt;/font&gt;&lt;span style=&quot;color: rgba(0, 0, 0, 0); font-family: monospace; font-size: 0px; text-wrap: nowrap;&quot;&gt;%3CmxGraphModel%3E%3Croot%3E%3CmxCell%20id%3D%220%22%2F%3E%3CmxCell%20id%3D%221%22%20parent%3D%220%22%2F%3E%3CmxCell%20id%3D%222%22%20value%3D%22%26lt%3Bfont%20style%3D%26quot%3Bfont-size%3A%206px%3B%26quot%3B%26gt%3BBluetooth%20status%3A%20Not%20connected%26lt%3B%2Ffont%26gt%3B%22%20style%3D%22text%3Bhtml%3D1%3Balign%3Dleft%3BverticalAlign%3Dmiddle%3BwhiteSpace%3Dwrap%3Brounded%3D0%3BfontSize%3D7%3B%22%20vertex%3D%221%22%20parent%3D%221%22%3E%3CmxGeometry%20x%3D%22390%22%20y%3D%22310%22%20width%3D%2290%22%20height%3D%2210%22%20as%3D%22geometry%22%2F%3E%3C%2FmxCell%3E%3C%2Froot%3E%3C%2FmxGraphModel%3E&lt;/span&gt;" style="text;html=1;align=left;verticalAlign=middle;whiteSpace=wrap;rounded=0;fontSize=7;" vertex="1" parent="1">
          <mxGeometry x="390" y="320" width="90" height="10" as="geometry" />
        </mxCell>
        <mxCell id="h6Hvprm5l93SC_2R2wYD-10" value="&lt;span style=&quot;font-size: 6px;&quot;&gt;None&lt;/span&gt;" style="text;html=1;align=left;verticalAlign=middle;whiteSpace=wrap;rounded=0;fontSize=7;" vertex="1" parent="1">
          <mxGeometry x="390" y="330" width="90" height="10" as="geometry" />
        </mxCell>
        <mxCell id="h6Hvprm5l93SC_2R2wYD-11" value="" style="whiteSpace=wrap;html=1;rotation=-90;" vertex="1" parent="1">
          <mxGeometry x="240" y="250" width="190" height="90" as="geometry" />
        </mxCell>
        <mxCell id="h6Hvprm5l93SC_2R2wYD-12" value="" style="rounded=0;whiteSpace=wrap;html=1;fillColor=#000000;" vertex="1" parent="1">
          <mxGeometry x="290" y="200" width="90" height="10" as="geometry" />
        </mxCell>
        <mxCell id="h6Hvprm5l93SC_2R2wYD-13" value="" style="rounded=0;whiteSpace=wrap;html=1;fillColor=#000000;" vertex="1" parent="1">
          <mxGeometry x="290" y="380" width="90" height="10" as="geometry" />
        </mxCell>
        <mxCell id="h6Hvprm5l93SC_2R2wYD-14" value="" style="rounded=0;whiteSpace=wrap;html=1;" vertex="1" parent="1">
          <mxGeometry x="290" y="210" width="90" height="20" as="geometry" />
        </mxCell>
        <mxCell id="h6Hvprm5l93SC_2R2wYD-15" value="&lt;p style=&quot;line-height: 50%;&quot;&gt;&lt;font style=&quot;font-size: 6px;&quot;&gt;Press &#39;Start Scanning&#39; to connect to a bluetooth device.&lt;/font&gt;&lt;/p&gt;" style="text;html=1;align=left;verticalAlign=middle;whiteSpace=wrap;rounded=0;" vertex="1" parent="1">
          <mxGeometry x="290" y="210" width="90" height="20" as="geometry" />
        </mxCell>
        <mxCell id="h6Hvprm5l93SC_2R2wYD-16" value="&lt;p style=&quot;line-height: 60%;&quot;&gt;&lt;font style=&quot;font-size: 5px;&quot;&gt;Start Scanning&lt;/font&gt;&lt;/p&gt;" style="rounded=0;whiteSpace=wrap;html=1;align=center;fillColor=#f5f5f5;fontColor=#333333;strokeColor=#666666;" vertex="1" parent="1">
          <mxGeometry x="300" y="240" width="70" height="10" as="geometry" />
        </mxCell>
        <mxCell id="h6Hvprm5l93SC_2R2wYD-18" value="&lt;font style=&quot;font-size: 6px;&quot;&gt;Bluetooth status: Not connected&lt;/font&gt;" style="text;html=1;align=left;verticalAlign=middle;whiteSpace=wrap;rounded=0;fontSize=7;" vertex="1" parent="1">
          <mxGeometry x="290" y="260" width="90" height="10" as="geometry" />
        </mxCell>
        <mxCell id="h6Hvprm5l93SC_2R2wYD-19" value="&lt;font style=&quot;font-size: 6px;&quot;&gt;Blockchain:&lt;/font&gt;&lt;span style=&quot;color: rgba(0, 0, 0, 0); font-family: monospace; font-size: 0px; text-wrap: nowrap;&quot;&gt;%3CmxGraphModel%3E%3Croot%3E%3CmxCell%20id%3D%220%22%2F%3E%3CmxCell%20id%3D%221%22%20parent%3D%220%22%2F%3E%3CmxCell%20id%3D%222%22%20value%3D%22%26lt%3Bfont%20style%3D%26quot%3Bfont-size%3A%206px%3B%26quot%3B%26gt%3BBluetooth%20status%3A%20Not%20connected%26lt%3B%2Ffont%26gt%3B%22%20style%3D%22text%3Bhtml%3D1%3Balign%3Dleft%3BverticalAlign%3Dmiddle%3BwhiteSpace%3Dwrap%3Brounded%3D0%3BfontSize%3D7%3B%22%20vertex%3D%221%22%20parent%3D%221%22%3E%3CmxGeometry%20x%3D%22390%22%20y%3D%22310%22%20width%3D%2290%22%20height%3D%2210%22%20as%3D%22geometry%22%2F%3E%3C%2FmxCell%3E%3C%2Froot%3E%3C%2FmxGraphModel%3E&lt;/span&gt;" style="text;html=1;align=left;verticalAlign=middle;whiteSpace=wrap;rounded=0;fontSize=7;" vertex="1" parent="1">
          <mxGeometry x="290" y="270" width="90" height="10" as="geometry" />
        </mxCell>
        <mxCell id="h6Hvprm5l93SC_2R2wYD-20" value="&lt;span style=&quot;font-size: 6px;&quot;&gt;None&lt;/span&gt;" style="text;html=1;align=left;verticalAlign=middle;whiteSpace=wrap;rounded=0;fontSize=7;" vertex="1" parent="1">
          <mxGeometry x="290" y="280" width="90" height="10" as="geometry" />
        </mxCell>
        <mxCell id="h6Hvprm5l93SC_2R2wYD-21" value="" style="whiteSpace=wrap;html=1;rotation=-90;" vertex="1" parent="1">
          <mxGeometry x="440" y="250" width="190" height="90" as="geometry" />
        </mxCell>
        <mxCell id="h6Hvprm5l93SC_2R2wYD-22" value="" style="rounded=0;whiteSpace=wrap;html=1;fillColor=#000000;" vertex="1" parent="1">
          <mxGeometry x="490" y="200" width="90" height="10" as="geometry" />
        </mxCell>
        <mxCell id="h6Hvprm5l93SC_2R2wYD-23" value="" style="rounded=0;whiteSpace=wrap;html=1;fillColor=#000000;" vertex="1" parent="1">
          <mxGeometry x="490" y="380" width="90" height="10" as="geometry" />
        </mxCell>
        <mxCell id="h6Hvprm5l93SC_2R2wYD-26" value="&lt;p style=&quot;line-height: 60%;&quot;&gt;&lt;font style=&quot;font-size: 5px;&quot;&gt;Disconnect&lt;/font&gt;&lt;/p&gt;" style="rounded=0;whiteSpace=wrap;html=1;align=center;fillColor=#f5f5f5;fontColor=#333333;strokeColor=#666666;" vertex="1" parent="1">
          <mxGeometry x="500" y="215" width="70" height="10" as="geometry" />
        </mxCell>
        <mxCell id="h6Hvprm5l93SC_2R2wYD-28" value="&lt;font style=&quot;font-size: 6px;&quot;&gt;Bluetooth status: Connected&lt;/font&gt;" style="text;html=1;align=left;verticalAlign=middle;whiteSpace=wrap;rounded=0;fontSize=7;" vertex="1" parent="1">
          <mxGeometry x="490" y="230" width="90" height="10" as="geometry" />
        </mxCell>
        <mxCell id="h6Hvprm5l93SC_2R2wYD-29" value="&lt;font style=&quot;font-size: 6px;&quot;&gt;Blockchain:&lt;/font&gt;&lt;span style=&quot;color: rgba(0, 0, 0, 0); font-family: monospace; font-size: 0px; text-wrap: nowrap;&quot;&gt;%3CmxGraphModel%3E%3Croot%3E%3CmxCell%20id%3D%220%22%2F%3E%3CmxCell%20id%3D%221%22%20parent%3D%220%22%2F%3E%3CmxCell%20id%3D%222%22%20value%3D%22%26lt%3Bfont%20style%3D%26quot%3Bfont-size%3A%206px%3B%26quot%3B%26gt%3BBluetooth%20status%3A%20Not%20connected%26lt%3B%2Ffont%26gt%3B%22%20style%3D%22text%3Bhtml%3D1%3Balign%3Dleft%3BverticalAlign%3Dmiddle%3BwhiteSpace%3Dwrap%3Brounded%3D0%3BfontSize%3D7%3B%22%20vertex%3D%221%22%20parent%3D%221%22%3E%3CmxGeometry%20x%3D%22390%22%20y%3D%22310%22%20width%3D%2290%22%20height%3D%2210%22%20as%3D%22geometry%22%2F%3E%3C%2FmxCell%3E%3C%2Froot%3E%3C%2FmxGraphModel%3E&lt;/span&gt;" style="text;html=1;align=left;verticalAlign=middle;whiteSpace=wrap;rounded=0;fontSize=7;" vertex="1" parent="1">
          <mxGeometry x="490" y="240" width="90" height="10" as="geometry" />
        </mxCell>
        <mxCell id="h6Hvprm5l93SC_2R2wYD-30" value="&lt;span style=&quot;font-family: &amp;quot;Times New Roman&amp;quot;;&quot;&gt;&lt;font style=&quot;font-size: 7px;&quot;&gt;User: Joris, Descr: Uploading example blockchain, File: test.pdf, Time: 2024-04-24 09:24:43 | User: Joris, Descr: Testing blockchain again with bigger file and larger description to see how it would look like in the app....,&amp;nbsp;&lt;/font&gt;&lt;/span&gt;&lt;span style=&quot;font-family: &amp;quot;Times New Roman&amp;quot;;&quot;&gt;File: large_file.pdf, Time: 2024-04-24 09:24:43 |&lt;/span&gt;" style="text;html=1;align=left;verticalAlign=top;whiteSpace=wrap;rounded=0;fontSize=7;" vertex="1" parent="1">
          <mxGeometry x="490" y="250" width="90" height="130" as="geometry" />
        </mxCell>
      </root>
    </mxGraphModel>
  </diagram>
</mxfile>
